<?xml version="1.0"?>
<svg xmlns:rdf="http://www.w3.org/1999/02/22-rdf-syntax-ns#" xmlns="http://www.w3.org/2000/svg" xmlns:cc="http://creativecommons.org/ns#" xmlns:xlink="http://www.w3.org/1999/xlink" xmlns:dc="http://purl.org/dc/elements/1.1/" xmlns:svg="http://www.w3.org/2000/svg" id="svg5406" viewBox="0 0 217.82 217.82" version="1.1">
  <defs id="defs5408">
    <radialGradient id="radialGradient4151" gradientUnits="userSpaceOnUse" cy="-854.62" cx="-4835.7" gradientTransform="matrix(1.7518 -1.0524e-7 1.0756e-7 1.7903 3635.4 675.39)" r="131.7">
      <stop id="stop4147" stop-color="#fffd44" offset="0"/>
      <stop id="stop4149" stop-color="#ffd429" offset="1"/>
    </radialGradient>
    <radialGradient id="radialGradient5404" gradientUnits="userSpaceOnUse" cy="2526.4" cx="-5654.7" gradientTransform="matrix(.28599 0 0 .286 -3218.5 -1577.2)" r="474.77">
      <stop id="stop4103" stop-color="#ffd429" stop-opacity="0" offset="0"/>
      <stop id="stop4109" stop-color="#ffd429" stop-opacity="0" offset=".42553"/>
      <stop id="stop4111" stop-color="#ffd429" offset=".73004"/>
      <stop id="stop4105" stop-color="#ffd429" offset="1"/>
    </radialGradient>
  </defs>
  <g id="layer1" transform="translate(-579.66 -629.17)">
    <g id="g4119" transform="matrix(.80211 0 0 .80211 4567.3 1423.6)">
      <path id="path4113" style="color:#000000" fill="url(#radialGradient4151)" d="m-4802.6-986.32c-17.77 14.984-24.324 29.807-30.618 45.534-16.456-13.697-32.805-27.112-39.663-44.453-7.8988 21.865-6.1666 37.987-3.7536 54.758-21.099-3.6338-41.962-7.0812-56.572-18.67 4.0912 22.882 13.648 35.972 24.121 49.288-20.089 7.4025-39.877 14.859-58.323 12.128 14.984 17.77 29.807 24.324 45.534 30.618-13.696 16.455-27.113 32.805-44.453 39.663 21.865 7.8988 37.987 6.1666 54.758 3.7536-3.6339 21.099-7.0813 41.962-18.67 56.572 22.883-4.0915 35.972-13.656 49.288-24.13 7.4034 20.092 14.85 39.884 12.119 58.332 17.771-14.984 24.332-29.806 30.627-45.534 16.455 13.696 32.805 27.113 39.663 44.453 7.8988-21.865 6.1665-37.987 3.7536-54.758 21.099 3.6338 41.962 7.0812 56.572 18.67-4.0915-22.883-13.656-35.972-24.13-49.288 20.091-7.4031 39.885-14.859 58.332-12.128-14.982-17.769-29.808-24.324-45.534-30.618 13.696-16.455 27.104-32.805 44.444-39.663-21.863-7.8981-37.979-6.1663-54.749-3.7536 3.6339-21.099 7.0813-41.962 18.67-56.572-22.883 4.0915-35.972 13.656-49.288 24.13-7.4036-20.092-14.859-39.883-12.128-58.332z"/>
      <path id="path4115" style="color:#000000" fill="url(#radialGradient5404)" d="m-4837.8-990.41c-13.289 19.076-15.784 35.091-17.794 51.916-19.44-8.9709-38.703-17.699-49.815-32.674-1.9705 23.161 3.8754 38.282 10.546 53.855-21.32 1.9508-42.366 4.0251-59.476-3.3871 9.8739 21.043 22.498 31.21 36.061 41.361-17.489 12.35-34.678 24.675-53.202 26.811 19.076 13.289 35.092 15.784 51.916 17.794-8.9709 19.44-17.699 38.703-32.674 49.815 23.162 1.9704 38.281-3.8839 53.855-10.555 1.951 21.323 4.0171 42.372-3.3961 59.485 21.043-9.8743 31.218-22.498 41.37-36.061 12.35 17.489 24.675 34.678 26.811 53.202 13.289-19.075 15.784-35.091 17.794-51.916 19.44 8.9709 38.703 17.699 49.816 32.674 1.9704-23.162-3.8841-38.281-10.555-53.855 21.322-1.951 42.373-4.0256 59.485 3.3871-9.8732-21.041-22.5-31.211-36.061-41.361 17.489-12.35 34.669-24.675 53.194-26.811-19.074-13.288-35.084-15.784-51.907-17.794 8.9708-19.44 17.699-38.703 32.674-49.815-23.162-1.9704-38.281 3.884-53.855 10.555-1.9511-21.324-4.0261-42.372 3.3873-59.485-21.043 9.874-31.21 22.498-41.361 36.061-12.35-17.49-24.675-34.677-26.811-53.202zm2.1002 65.428c38.855 0 70.353 31.498 70.353 70.353s-31.498 70.353-70.353 70.353-70.353-31.498-70.353-70.353 31.498-70.353 70.353-70.353z"/>
    </g>
  </g>
  <metadata>
    <rdf:RDF>
      <cc:Work>
        <dc:format>image/svg+xml</dc:format>
        <dc:type rdf:resource="http://purl.org/dc/dcmitype/StillImage"/>
        <cc:license rdf:resource="http://creativecommons.org/licenses/publicdomain/"/>
        <dc:publisher>
          <cc:Agent rdf:about="http://openclipart.org/">
            <dc:title>Openclipart</dc:title>
          </cc:Agent>
        </dc:publisher>
        <dc:title>Sun</dc:title>
        <dc:date>2013-03-23T14:39:38</dc:date>
        <dc:description>A simple sun for a cartoonish or naivistic scene.</dc:description>
        <dc:source>http://openclipart.org/detail/176488/sun-by-purzen-176488</dc:source>
        <dc:creator>
          <cc:Agent>
            <dc:title>purzen</dc:title>
          </cc:Agent>
        </dc:creator>
        <dc:subject>
          <rdf:Bag>
            <rdf:li>book</rdf:li>
            <rdf:li>bright</rdf:li>
            <rdf:li>cartoon</rdf:li>
            <rdf:li>clip art</rdf:li>
            <rdf:li>clipart</rdf:li>
            <rdf:li>drawing</rdf:li>
            <rdf:li>flower</rdf:li>
            <rdf:li>scene</rdf:li>
            <rdf:li>shine</rdf:li>
            <rdf:li>sky</rdf:li>
            <rdf:li>summer</rdf:li>
            <rdf:li>sun</rdf:li>
            <rdf:li>sunflower</rdf:li>
            <rdf:li>sunshine</rdf:li>
          </rdf:Bag>
        </dc:subject>
      </cc:Work>
      <cc:License rdf:about="http://creativecommons.org/licenses/publicdomain/">
        <cc:permits rdf:resource="http://creativecommons.org/ns#Reproduction"/>
        <cc:permits rdf:resource="http://creativecommons.org/ns#Distribution"/>
        <cc:permits rdf:resource="http://creativecommons.org/ns#DerivativeWorks"/>
      </cc:License>
    </rdf:RDF>
  </metadata>
</svg>
